<svg xmlns="http://www.w3.org/2000/svg" width="17" height="44" viewBox="0 0 17 44">
  <metadata><?xpacket begin="﻿" id="W5M0MpCehiHzreSzNTczkc9d"?>
<x:xmpmeta xmlns:x="adobe:ns:meta/" x:xmptk="Adobe XMP Core 5.6-c140 79.160451, 2017/05/06-01:08:21        ">
   <rdf:RDF xmlns:rdf="http://www.w3.org/1999/02/22-rdf-syntax-ns#">
      <rdf:Description rdf:about=""/>
   </rdf:RDF>
</x:xmpmeta>
                                                                                                    
                                                                                                    
                                                                                                    
                                                                                                    
                                                                                                    
                                                                                                    
                                                                                                    
                                                                                                    
                                                                                                    
                                                                                                    
                                                                                                    
                                                                                                    
                                                                                                    
                                                                                                    
                                                                                                    
                                                                                                    
                                                                                                    
                                                                                                    
                                                                                                    
                                                                                                    
                           
<?xpacket end="w"?></metadata>
<defs>
    <style>
      .cls-1 {
        fill: #ffc500;
      }

      .cls-1, .cls-2, .cls-3 {
        fill-rule: evenodd;
      }

      .cls-2 {
        fill: #dedede;
      }

      .cls-3 {
        fill: #fdc327;
      }
    </style>
  </defs>
  <path id="_" data-name="" class="cls-1" d="M13.01,4.647A0.435,0.435,0,0,0,12.572,4.3L8.65,3.746,6.893,0.3A0.482,0.482,0,0,0,6.51-.012,0.482,0.482,0,0,0,6.127.3L4.369,3.746,0.447,4.3a0.429,0.429,0,0,0-.438.348,0.584,0.584,0,0,0,.2.364L3.049,7.693,2.377,11.481a1,1,0,0,0-.016.152,0.335,0.335,0,0,0,.328.379A0.674,0.674,0,0,0,3,11.92L6.51,10.132l3.508,1.788a0.648,0.648,0,0,0,.313.091,0.33,0.33,0,0,0,.32-0.379,0.988,0.988,0,0,0-.008-0.152L9.971,7.693l2.836-2.682A0.559,0.559,0,0,0,13.01,4.647Z"/>
  <path id="_copy" data-name=" copy" class="cls-2" d="M13.01,35.647a0.435,0.435,0,0,0-.437-0.348L8.65,34.746,6.893,31.3a0.482,0.482,0,0,0-.383-0.311,0.482,0.482,0,0,0-.383.311L4.369,34.746,0.447,35.3a0.429,0.429,0,0,0-.438.348,0.583,0.583,0,0,0,.2.364l2.844,2.682L2.377,42.481a1,1,0,0,0-.016.152,0.335,0.335,0,0,0,.328.379A0.674,0.674,0,0,0,3,42.92L6.51,41.132l3.508,1.788a0.648,0.648,0,0,0,.313.091,0.33,0.33,0,0,0,.32-0.379,0.988,0.988,0,0,0-.008-0.152L9.971,38.693l2.836-2.682A0.559,0.559,0,0,0,13.01,35.647Z"/>
  <path id="_2" data-name="" class="cls-3" d="M8.871,22.355l0.563,3.181-2.945-1.5-2.953,1.5,0.57-3.181L1.715,20.11l3.3-.468,1.477-2.887,1.477,2.887,3.3,0.468Zm4.117-2.7a0.435,0.435,0,0,0-.437-0.348l-3.922-.552L6.871,15.319a0.482,0.482,0,0,0-.383-0.31,0.482,0.482,0,0,0-.383.31L4.347,18.758l-3.922.552a0.429,0.429,0,0,0-.438.348,0.582,0.582,0,0,0,.2.363l2.844,2.675L2.355,26.473a0.993,0.993,0,0,0-.016.151A0.335,0.335,0,0,0,2.668,27a0.676,0.676,0,0,0,.313-0.091l3.508-1.783L10,26.911a0.65,0.65,0,0,0,.313.091,0.325,0.325,0,0,0,.32-0.378,0.982,0.982,0,0,0-.008-0.151L9.949,22.695l2.836-2.675A0.558,0.558,0,0,0,12.988,19.657Z"/>
</svg>
