<svg xmlns="http://www.w3.org/2000/svg" width="142" height="148" viewBox="0 0 142 148">
  <metadata><?xpacket begin="﻿" id="W5M0MpCehiHzreSzNTczkc9d"?>
<x:xmpmeta xmlns:x="adobe:ns:meta/" x:xmptk="Adobe XMP Core 5.6-c140 79.160451, 2017/05/06-01:08:21        ">
   <rdf:RDF xmlns:rdf="http://www.w3.org/1999/02/22-rdf-syntax-ns#">
      <rdf:Description rdf:about=""/>
   </rdf:RDF>
</x:xmpmeta>
                                                                                                    
                                                                                                    
                                                                                                    
                                                                                                    
                                                                                                    
                                                                                                    
                                                                                                    
                                                                                                    
                                                                                                    
                                                                                                    
                                                                                                    
                                                                                                    
                                                                                                    
                                                                                                    
                                                                                                    
                                                                                                    
                                                                                                    
                                                                                                    
                                                                                                    
                                                                                                    
                           
<?xpacket end="w"?></metadata>
<defs>
    <style>
      .cls-1 {
        fill: #fff;
      }

      .cls-2 {
        fill: #008fe6;
        fill-rule: evenodd;
      }
    </style>
  </defs>
  <circle id="Ellipse_3_copy_4" data-name="Ellipse 3 copy 4" class="cls-1" cx="71" cy="74" r="70"/>
  <path class="cls-2" d="M72.546,122.306a49.629,49.629,0,0,1-18.488-3.589l-13.205,6.608V110.913A49.78,49.78,0,1,1,72.546,122.306Zm-21.9-56.64a8.131,8.131,0,0,0,2.113-4.228q0-3.372-6.175-3.372H34.379q-5.114.018-5.113,3.145t5.113,3.125h9.284L30.775,80.74a7.552,7.552,0,0,0-1.992,4.186q0,3.456,5.053,3.456H48.266q5.1,0,5.1-3.2t-5.1-3.174H38.088Zm26.327,4.611q0-4.872-3.444-4.871a3.7,3.7,0,0,0-3.342,2.144,6.99,6.99,0,0,0-5.593-2.4,9.957,9.957,0,0,0-7.953,3.685,12.234,12.234,0,0,0-2.928,8.2,12.541,12.541,0,0,0,2.774,8.154A9.681,9.681,0,0,0,64.336,88.9a7.275,7.275,0,0,0,5.853-2.561,3.527,3.527,0,0,0,3.342,2.349q3.441,0,3.444-4.9V70.278Zm12.007-9.522q0-4.9-3.456-4.9-3.514,0-3.513,4.91V83.8q0,4.9,3.513,4.9,3.444,0,3.444-4.9V60.759Zm23.945,7.55a12.415,12.415,0,0,0-17.057.209,11.811,11.811,0,0,0-3.221,8.507,11.873,11.873,0,0,0,3.221,8.544L96.1,85.79a12.394,12.394,0,0,0,17.023-.224,11.95,11.95,0,0,0,3.188-8.519,11.952,11.952,0,0,0-3.188-8.536ZM106.811,82.03a4.326,4.326,0,0,1-5.84-1.178,6.74,6.74,0,0,1-1.075-3.9h0a6.519,6.519,0,0,1,1.1-3.833,4.086,4.086,0,0,1,1.174-1.124,4.312,4.312,0,0,1,5.825,1.145,6.432,6.432,0,0,1,1.126,3.814,6.742,6.742,0,0,1-1.074,3.9,4.137,4.137,0,0,1-1.235,1.19V82.03ZM65.5,82.437a4.01,4.01,0,0,1-3.468-1.751,6.394,6.394,0,0,1-1.075-3.746h0a6.046,6.046,0,0,1,1.135-3.688,4.015,4.015,0,0,1,3.423-1.683,3.949,3.949,0,0,1,3.381,1.707A6.043,6.043,0,0,1,70,76.94a6.42,6.42,0,0,1-1.075,3.725A3.952,3.952,0,0,1,65.5,82.437Z"/>
</svg>
