<svg xmlns="http://www.w3.org/2000/svg" width="117" height="34" viewBox="0 0 117 34">
  <metadata><?xpacket begin="﻿" id="W5M0MpCehiHzreSzNTczkc9d"?>
<x:xmpmeta xmlns:x="adobe:ns:meta/" x:xmptk="Adobe XMP Core 5.6-c140 79.160451, 2017/05/06-01:08:21        ">
   <rdf:RDF xmlns:rdf="http://www.w3.org/1999/02/22-rdf-syntax-ns#">
      <rdf:Description rdf:about=""/>
   </rdf:RDF>
</x:xmpmeta>
                                                                                                    
                                                                                                    
                                                                                                    
                                                                                                    
                                                                                                    
                                                                                                    
                                                                                                    
                                                                                                    
                                                                                                    
                                                                                                    
                                                                                                    
                                                                                                    
                                                                                                    
                                                                                                    
                                                                                                    
                                                                                                    
                                                                                                    
                                                                                                    
                                                                                                    
                                                                                                    
                           
<?xpacket end="w"?></metadata>
<defs>
    <style>
      .cls-1 {
        fill: #ff7918;
      }

      .cls-1, .cls-2 {
        fill-rule: evenodd;
      }

      .cls-2 {
        fill: #004f93;
      }
    </style>
  </defs>
  <path class="cls-1" d="M16.049,4.6a12.944,12.944,0,0,1,1.915.25A12.247,12.247,0,0,1,27.835,16.74a11.838,11.838,0,0,1-1.521,5.816,9.994,9.994,0,0,1,1.888,1.03A13.884,13.884,0,0,0,30,16.74a14.4,14.4,0,0,0-12.443-14.1,15.129,15.129,0,0,0-2.091-.162,14.447,14.447,0,0,0-1.508.06l-0.214.022A14.417,14.417,0,0,0,.658,16.74a13.981,13.981,0,0,0,.1,1.7q1.049-.721,2.063-1.549c0-.05,0-0.1,0-0.149A12.245,12.245,0,0,1,12.616,4.871c0.165-.035.331-0.066,0.5-0.1A13,13,0,0,1,16.049,4.6Z"/>
  <path id="Shape_39_copy" data-name="Shape 39 copy" class="cls-2" d="M113.511,14.791V10.133A1.6,1.6,0,0,0,111.8,8.384a1.994,1.994,0,0,0-1.99,2.194v4.213h-2.491V6.237h2.491V7.732a3.263,3.263,0,0,1,3.009-1.59A3.019,3.019,0,0,1,116,9.417v5.374h-2.492ZM99.678,11.261a2.217,2.217,0,0,0,2.248,1.717,3.112,3.112,0,0,0,2.2-.906l1.311,1.3a4.9,4.9,0,0,1-3.721,1.51,4.179,4.179,0,0,1-4.545-4.34,4.205,4.205,0,0,1,4.48-4.388c3.058,0,4.481,1.987,4.271,5.1H99.678Zm1.99-3.307a2.028,2.028,0,0,0-2.039,1.86h3.964A1.8,1.8,0,0,0,101.668,7.954ZM90.256,17.986a3.538,3.538,0,0,1-2.362-.827l1.051-1.765a1.708,1.708,0,0,0,1.132.461,1.208,1.208,0,0,0,1.148-.763l0.243-.477L87.862,6.237h2.572l2.281,5.882,2.054-5.882H97.26l-3.817,9.507A3.222,3.222,0,0,1,90.256,17.986Zm1.3,5.421V22.244h2.458v7.774C94.013,32.456,92.165,34,89.4,34a6.762,6.762,0,0,1-3.76-1.131l0.916-1.721a4.6,4.6,0,0,0,2.683.86c1.414,0,2.314-.749,2.314-1.912V29.127a3.061,3.061,0,0,1-2.6,1.243c-2.233,0-3.776-1.657-3.776-4.142,0-2.422,1.51-4.062,3.712-4.062A3.121,3.121,0,0,1,91.555,23.407Zm-4.065,2.884a2.04,2.04,0,1,0,4.065,0,2.03,2.03,0,0,0-2.025-2.23A2.06,2.06,0,0,0,87.489,26.291ZM84.5,13.28a3.1,3.1,0,0,1-2.912,1.606,2.983,2.983,0,0,1-3.138-3.275V6.237h2.491v4.674a1.56,1.56,0,0,0,1.634,1.733A1.968,1.968,0,0,0,84.5,10.466V6.237h2.475v8.553H84.5V13.28Zm-3.753,8.868a3.013,3.013,0,0,1,3.165,3.282v5.385H81.438V26.147a1.6,1.6,0,0,0-1.7-1.752,1.991,1.991,0,0,0-1.976,2.2v4.222H75.284V22.244h2.475v1.5A3.233,3.233,0,0,1,80.747,22.149Zm-6.5-12.016a1.6,1.6,0,0,0-1.715-1.749,2.006,2.006,0,0,0-2.006,2.194v4.213H68.032V2.994h2.491V7.748a3.274,3.274,0,0,1,3.009-1.606,3.023,3.023,0,0,1,3.2,3.275v5.374H74.243V10.133Zm-0.368,16.4a4.275,4.275,0,0,1-4.628,4.381c-2.78,0-4.644-1.768-4.644-4.381,0-2.629,1.864-4.365,4.644-4.365C72.011,22.165,73.875,23.9,73.875,26.53Zm-6.8.032a2.169,2.169,0,1,0,4.322,0A2.169,2.169,0,1,0,67.078,26.562ZM63.533,14.791H60.977v-9H57.532V3.662h9.463v2.13H63.533v9Zm-5.87-8.553v8.553H55.188V13.28a3.1,3.1,0,0,1-2.912,1.606,2.983,2.983,0,0,1-3.138-3.275V6.237H51.63v4.674a1.56,1.56,0,0,0,1.634,1.733,1.968,1.968,0,0,0,1.925-2.178V6.237h2.475Zm-4.8,15.911a3.291,3.291,0,0,1,2.8,1.338V22.244h2.458v8.571H55.657V29.589a3.21,3.21,0,0,1-2.715,1.322c-2.458,0-4.081-1.768-4.081-4.413C48.86,23.9,50.45,22.165,52.861,22.149Zm0.659,6.787a2.14,2.14,0,0,0,2.137-2.087V26.275a2.14,2.14,0,0,0-2.137-2.087,2.2,2.2,0,0,0-2.185,2.374A2.184,2.184,0,0,0,53.519,28.935Zm-11.8-14.145H37.014V3.662h4.8c3.51,0,5.953,2.273,5.953,5.564C47.771,12.5,45.3,14.791,41.721,14.791ZM41.77,5.776h-2.2v6.9h2.313a3.231,3.231,0,0,0,3.284-3.434A3.311,3.311,0,0,0,41.77,5.776ZM39.553,24.315h5.094V19.663h2.539V30.815H44.646v-4.4H39.553v4.4H37.014V19.663h2.539v4.652ZM15.162,31a14.7,14.7,0,0,1-13.284-8.52C9.32,26.1,13.816,24.786,17.562,23.69c2.744-.8,5.086-1.482,8.086-0.146A5.988,5.988,0,0,1,27.4,24.855,14.788,14.788,0,0,1,15.162,31Zm2.057-8.435c-0.557.164-1.123,0.33-1.7,0.485a20.29,20.29,0,0,0,.936-2.017l7.4-1.948c0.273,0.97.508,1.926,0.679,2.837C21.84,21.22,19.565,21.879,17.218,22.566Zm0.335-4.995,4.525-3.253a28.937,28.937,0,0,1,1.592,4.122l-6.91,1.821A22.974,22.974,0,0,0,17.554,17.571Zm0.415-9.225a21.952,21.952,0,0,1,3.809,5.36L17.755,16.6A27.356,27.356,0,0,0,17.968,8.346Zm-6.675.043a32.716,32.716,0,0,0,1.821-3.612c0.407-.888.553-1.5,0.845-2.236A24.551,24.551,0,0,0,14.653,0c0.22,0.534.521,1.475,0.813,2.48,0.288,0.923.365,1.4,0.582,2.123,0.188,0.731.331,1.348,0.386,1.681a30.26,30.26,0,0,1,.141,9.935ZM15.429,20.38L6.093,15.253A35.836,35.836,0,0,0,10.909,9.03l5.484,8.13A20.914,20.914,0,0,1,15.429,20.38Zm-1.5,3.028c-2.971.72-7.883,0.363-13.932-3.3a28.354,28.354,0,0,0,5.606-4.378l9.56,5.25A18.915,18.915,0,0,1,13.932,23.408ZM62.5,27.82a0.776,0.776,0,0,0,.771.924,2.034,2.034,0,0,0,.836-0.239l0.241,2.039a3.9,3.9,0,0,1-1.639.382,2.625,2.625,0,0,1-2.667-2.947V18.994H62.5V27.82Z"/>
</svg>
