<svg xmlns="http://www.w3.org/2000/svg" width="309" height="44" viewBox="0 0 309 44">
  <metadata><?xpacket begin="﻿" id="W5M0MpCehiHzreSzNTczkc9d"?>
<x:xmpmeta xmlns:x="adobe:ns:meta/" x:xmptk="Adobe XMP Core 5.6-c140 79.160451, 2017/05/06-01:08:21        ">
   <rdf:RDF xmlns:rdf="http://www.w3.org/1999/02/22-rdf-syntax-ns#">
      <rdf:Description rdf:about=""/>
   </rdf:RDF>
</x:xmpmeta>
                                                                                                    
                                                                                                    
                                                                                                    
                                                                                                    
                                                                                                    
                                                                                                    
                                                                                                    
                                                                                                    
                                                                                                    
                                                                                                    
                                                                                                    
                                                                                                    
                                                                                                    
                                                                                                    
                                                                                                    
                                                                                                    
                                                                                                    
                                                                                                    
                                                                                                    
                                                                                                    
                           
<?xpacket end="w"?></metadata>
<defs>
    <style>
      .cls-1 {
        fill: #ff7918;
      }

      .cls-1, .cls-2 {
        fill-rule: evenodd;
      }

      .cls-2 {
        fill: #004f93;
      }
    </style>
  </defs>
  <path class="cls-1" d="M22.468,6.534a17.862,17.862,0,0,1,2.68.356A17.322,17.322,0,0,1,38.969,23.76a16.978,16.978,0,0,1-2.13,8.254,13.958,13.958,0,0,1,2.644,1.462A19.918,19.918,0,0,0,42,23.76,20.341,20.341,0,0,0,24.58,3.751a20.958,20.958,0,0,0-2.927-.23,19.818,19.818,0,0,0-2.111.086l-0.3.03A20.354,20.354,0,0,0,.922,23.76a20.142,20.142,0,0,0,.144,2.411q1.469-1.024,2.889-2.2c0-.07,0-0.141,0-0.212A17.319,17.319,0,0,1,17.663,6.914c0.23-.05.463-0.094,0.7-0.136A17.954,17.954,0,0,1,22.468,6.534Z"/>
  <path id="Shape_39_copy" data-name="Shape 39 copy" class="cls-2" d="M300.425,39.968a12.535,12.535,0,0,1-6.987-2.109l1.7-3.208a8.524,8.524,0,0,0,4.986,1.6c2.627,0,4.3-1.4,4.3-3.564V30.879a5.681,5.681,0,0,1-4.836,2.317c-4.15,0-7.017-3.089-7.017-7.723,0-4.515,2.807-7.574,6.9-7.574a5.79,5.79,0,0,1,4.956,2.317V18.047h4.568v14.5C308.993,37.087,305.56,39.968,300.425,39.968Zm0.238-18.535c-2.239,0-3.761,1.723-3.791,4.159,0.03,2.436,1.522,4.129,3.791,4.129,2.24,0,3.762-1.693,3.762-4.129C304.425,23.126,302.9,21.433,300.663,21.433Zm-15,3.891a2.974,2.974,0,0,0-3.165-3.267c-2.3.03-3.672,1.753-3.672,4.1v7.872h-4.6V18.047h4.6v2.792a6,6,0,0,1,5.553-2.97c3.583,0,5.882,2.376,5.882,6.119v10.04h-4.6v-8.7Zm-22.617,8.881c-5.165,0-8.629-3.3-8.629-8.169,0-4.9,3.464-8.139,8.629-8.139,5.135,0,8.6,3.238,8.6,8.139C271.643,30.909,268.18,34.206,263.045,34.206Zm0-12.505c-2.389,0-4.031,1.782-4.031,4.4s1.642,4.4,4.031,4.4c2.358,0,4-1.782,4-4.4S265.4,21.7,263.045,21.7ZM250.927,34.236c-2.687,0-4.956-1.782-4.956-5.5V11.987h4.568V28.443a1.444,1.444,0,0,0,1.433,1.723,3.768,3.768,0,0,0,1.552-.446l0.448,3.8A7.228,7.228,0,0,1,250.927,34.236Zm-13.07-2.5a5.956,5.956,0,0,1-5.045,2.465c-4.568,0-7.584-3.3-7.584-8.228,0-4.842,2.956-8.079,7.434-8.109a6.106,6.106,0,0,1,5.195,2.5V18.047h4.568V34.028h-4.568V31.741Zm0-6.178a3.982,3.982,0,0,0-3.971-3.891c-2.388,0-4.03,1.842-4.06,4.426,0.03,2.614,1.642,4.426,4.06,4.426a3.982,3.982,0,0,0,3.971-3.891V25.562Zm-20.425.267h-9.465v8.2H203.25V13.235h4.717v8.674h9.465V13.235h4.717V34.028h-4.717v-8.2Zm-22.508-.5a2.974,2.974,0,0,0-3.164-3.267c-2.3.03-3.673,1.753-3.673,4.1v7.872h-4.6V18.047h4.6v2.792a6,6,0,0,1,5.554-2.97c3.582,0,5.881,2.376,5.881,6.119v10.04h-4.6v-8.7Zm-25.5,2.109a4.1,4.1,0,0,0,4.15,3.208,5.71,5.71,0,0,0,4.06-1.693l2.418,2.436a8.977,8.977,0,0,1-6.866,2.822c-5.136,0-8.39-3.267-8.39-8.109,0-4.931,3.374-8.2,8.27-8.2,5.643,0,8.27,3.713,7.882,9.535H169.426Zm3.672-6.178a3.759,3.759,0,0,0-3.762,3.475h7.315A3.346,3.346,0,0,0,173.1,21.255ZM152.072,40a6.479,6.479,0,0,1-4.359-1.545l1.94-3.3a3.133,3.133,0,0,0,2.09.861,2.228,2.228,0,0,0,2.12-1.426l0.448-.891-6.658-15.654H152.4l4.21,10.99,3.791-10.99H165L157.953,35.81C156.819,38.632,154.848,40,152.072,40ZM141.48,31.206a5.7,5.7,0,0,1-5.374,3c-3.553,0-5.792-2.347-5.792-6.119V18.047h4.6V26.78a2.9,2.9,0,0,0,3.015,3.238c2.21-.03,3.553-1.753,3.553-4.069v-7.9h4.568V34.028H141.48V31.206Zm-18.9-5.881a2.974,2.974,0,0,0-3.165-3.267c-2.3.03-3.7,1.753-3.7,4.1v7.872h-4.6V11.987h4.6v8.882a6.025,6.025,0,0,1,5.553-3c3.613,0,5.912,2.376,5.912,6.119v10.04h-4.6v-8.7Zm-19.731,8.7H98.135V17.215H91.776v-3.98h17.465v3.98h-6.389V34.028ZM92.069,18.047V34.028H87.5V31.206a5.7,5.7,0,0,1-5.374,3c-3.553,0-5.792-2.347-5.792-6.119V18.047h4.6V26.78a2.9,2.9,0,0,0,3.016,3.238c2.209-.03,3.553-1.753,3.553-4.069v-7.9h4.568ZM62.681,34.028H53.993V13.235H62.86c6.479,0,10.987,4.248,10.987,10.4C73.847,29.75,69.279,34.028,62.681,34.028Zm0.09-16.842H58.71V30.077h4.269c3.493,0,6.061-2.614,6.061-6.416A6.149,6.149,0,0,0,62.77,17.186ZM19.542,3.606A35.239,35.239,0,0,0,20.515,0c0.308,0.757.729,2.093,1.139,3.52,0.4,1.31.511,1.987,0.815,3.014,0.263,1.038.463,1.914,0.54,2.386a43.529,43.529,0,0,1,.2,14.1L15.811,11.906A46.662,46.662,0,0,0,18.36,6.778C18.93,5.518,19.134,4.652,19.542,3.606Zm1.69,26.174a26.974,26.974,0,0,1-1.727,3.443c-4.16,1.021-11.037.514-19.505-4.68A39.815,39.815,0,0,0,7.849,22.33ZM8.53,21.648a50.739,50.739,0,0,0,6.743-8.832l7.677,11.54a29.963,29.963,0,0,1-1.35,4.569ZM24.106,32.029c-0.779.232-1.572,0.467-2.378,0.687a29.064,29.064,0,0,0,1.31-2.862l10.354-2.766c0.382,1.377.712,2.734,0.951,4.026C30.576,30.119,27.391,31.054,24.106,32.029Zm9.033-5.857-9.674,2.585a32.957,32.957,0,0,0,1.11-3.818l6.335-4.616A41.407,41.407,0,0,1,33.139,26.173Zm-2.65-6.719-5.631,4.1a39.353,39.353,0,0,0,.3-11.712A31.165,31.165,0,0,1,30.489,19.453Zm-5.9,14.172c3.842-1.134,7.121-2.1,11.321-.207a8.4,8.4,0,0,1,2.447,1.861,20.714,20.714,0,0,1-35.726-3.37C13.049,37.043,19.343,35.18,24.587,33.625Z"/>
</svg>
